<?xml version="1.0"?>
<svg width="512" height="512" xmlns="http://www.w3.org/2000/svg" xmlns:svg="http://www.w3.org/2000/svg" preserveAspectRatio="xMidYMid meet" version="1.0">
 <g class="layer">
  <title>Layer 1</title>
  <g fill="#000000" id="svg_1" transform="matrix(0.1 0 0 -0.1 0 0)">
   <path d="m1893,-15c-122,-33 -227,-119 -284,-233c-33,-65 -34,-71 -34,-187c0,-116 1,-122 33,-187c19,-36 45,-76 58,-89c13,-12 24,-26 24,-30c0,-4 -18,-16 -40,-27l-40,-19l-11,41c-56,212 -281,357 -491,318c-271,-50 -430,-325 -337,-578c11,-28 37,-77 59,-108l40,-57l-27,-10c-19,-7 -38,-6 -72,5c-71,23 -140,29 -206,17c-323,-60 -472,-430 -276,-688l39,-51l-54,-27c-74,-36 -161,-119 -206,-196c-60,-100 -70,-168 -66,-435c3,-209 5,-233 24,-275c30,-64 88,-125 148,-157c48,-25 61,-27 209,-30c154,-4 160,-3 183,19c32,30 31,73 -1,104c-23,24 -29,25 -155,25c-151,0 -183,9 -226,66l-29,37l0,241l0,241l33,67c38,77 92,130 171,167c55,26 59,26 276,26l220,0l67,-33c77,-38 130,-92 167,-171c26,-56 26,-58 26,-297l0,-241l-29,-37c-39,-51 -79,-66 -179,-66c-70,0 -89,-3 -111,-21c-33,-26 -36,-79 -5,-110c19,-19 30,-21 138,-17c101,3 122,7 167,30c60,31 118,93 148,157c19,42 21,66 24,293l3,246l157,4c147,3 160,5 208,30c65,34 137,114 158,175c10,28 16,80 16,129l0,83l298,3l297,3l51,27c67,35 138,115 161,181c27,77 26,483 -1,572c-21,70 -49,105 -86,105c-62,0 -89,-51 -65,-120c12,-33 15,-94 15,-275c0,-224 -1,-233 -22,-265c-13,-18 -36,-43 -51,-54c-27,-20 -42,-21 -313,-24l-284,-3l0,68c-1,90 -14,143 -57,232c-40,80 -132,181 -196,216c-48,25 -48,47 1,143c41,82 87,127 168,164c45,21 66,23 249,26c163,3 211,0 261,-13c77,-21 102,-17 127,17c30,40 18,73 -38,113c-20,13 -20,14 6,42c93,102 127,279 80,415c-74,216 -303,341 -518,283zm194,-150c65,-19 139,-85 169,-150c33,-70 33,-170 0,-240c-44,-95 -153,-165 -256,-165c-103,0 -212,70 -256,165c-18,37 -24,68 -24,120c0,195 178,326 367,270zm-775,-442c136,-74 187,-232 117,-368c-59,-117 -153,-172 -273,-163c-104,9 -190,69 -238,167c-33,68 -31,168 5,237c33,64 106,130 166,149c67,22 160,12 223,-22zm109,-703c106,-33 180,-104 219,-206c18,-49 20,-78 20,-283c0,-220 -1,-229 -22,-261c-49,-71 -61,-75 -251,-78l-172,-3l-28,45c-38,61 -125,139 -191,171l-54,27l39,51c99,131 115,303 41,452c-13,28 -31,58 -40,68c-28,31 2,37 194,37c155,0 191,-3 245,-20zm-665,-21c102,-49 158,-141 159,-259c0,-65 -4,-82 -30,-129c-54,-98 -142,-151 -250,-151c-150,0 -271,113 -282,264c-17,213 211,368 403,275z" fill="#ffffff" id="svg_2"/>
   <path d="m3265,-742c-21,-18 -28,-34 -28,-58c0,-51 25,-65 148,-78c355,-39 632,-274 726,-617c11,-42 19,-79 16,-81c-3,-3 -22,6 -42,21c-57,38 -95,33 -121,-17c-25,-48 -6,-76 109,-159c118,-87 132,-93 166,-79c33,14 191,235 191,267c0,31 -42,73 -74,73c-13,0 -38,-11 -54,-25l-30,-25l-16,68c-22,86 -93,236 -150,316c-171,240 -427,383 -737,411c-71,7 -77,5 -104,-17z" fill="#ffffff" id="svg_3"/>
   <path d="m3561,-2361c-520,-67 -963,-429 -1134,-924c-57,-166 -71,-257 -71,-450c0,-193 14,-285 71,-449c119,-342 367,-627 689,-789c295,-149 646,-185 969,-100c230,60 421,166 596,331c491,461 579,1197 213,1765c-53,81 -80,97 -128,74c-57,-27 -57,-63 -1,-150c88,-137 147,-279 181,-439c25,-111 25,-380 1,-486c-38,-166 -102,-317 -194,-454c-55,-83 -203,-237 -283,-295c-138,-100 -308,-177 -472,-215c-122,-28 -393,-31 -506,-5c-253,58 -457,170 -632,346c-173,175 -279,372 -337,623c-23,102 -23,384 0,486c58,252 163,447 337,623c329,334 813,452 1255,307c146,-47 241,-98 414,-224c41,-29 60,-30 95,-3c39,30 36,81 -6,120c-45,41 -180,130 -253,167c-250,125 -539,176 -804,141z" fill="#ffffff" id="svg_4"/>
   <path d="m3560,-2665c-399,-67 -731,-352 -855,-732c-207,-633 201,-1302 859,-1408c588,-96 1145,309 1241,899c76,466 -163,928 -592,1145c-189,95 -441,132 -653,96zm401,-163c439,-116 734,-517 706,-961c-30,-474 -404,-848 -878,-878c-397,-25 -773,215 -922,588c-199,497 70,1068 581,1234c151,49 363,56 513,17z" fill="#ffffff" id="svg_5"/>
   <path d="m3705,-3095c-21,-21 -25,-33 -25,-89l0,-65l-40,-12c-52,-16 -115,-70 -141,-121c-13,-25 -23,-69 -26,-113c-10,-134 31,-227 124,-282c42,-25 60,-28 163,-33l115,-5l3,-101c3,-97 2,-101 -24,-127c-24,-24 -34,-27 -96,-27c-38,0 -78,5 -89,10c-27,15 -49,63 -49,110c0,51 -27,80 -74,80c-26,0 -40,-7 -56,-27c-19,-24 -21,-36 -17,-90c4,-34 15,-80 26,-102c26,-50 90,-104 141,-120l40,-12l0,-65c0,-56 4,-68 25,-89c13,-14 36,-25 50,-25c14,0 37,11 50,25c21,21 25,33 25,88l0,64l45,18c62,23 101,58 130,116c23,44 25,60 25,175c0,117 -2,131 -25,170c-37,64 -87,84 -208,84c-107,0 -142,11 -163,51c-18,37 -18,122 1,159c21,41 43,50 123,50c91,0 116,-22 125,-107c7,-66 30,-93 78,-93c49,0 69,30 69,105c0,111 -55,192 -155,230l-45,18l0,64c0,55 -4,67 -25,88c-13,14 -36,25 -50,25c-14,0 -37,-11 -50,-25z" fill="#ffffff" id="svg_6"/>
   <path d="m653,-3396c-25,-25 -26,-29 -19,-112c9,-121 40,-241 92,-351c55,-118 112,-197 205,-287c136,-130 278,-209 457,-254l44,-11l-26,-24c-48,-45 -30,-114 35,-130c27,-7 55,10 207,122c100,74 100,89 -8,233c-97,130 -119,143 -174,99c-34,-27 -34,-71 0,-116c14,-19 24,-36 23,-38c-9,-8 -161,39 -228,70c-271,129 -440,370 -475,678c-11,94 -17,113 -36,129c-31,25 -66,22 -97,-8z" fill="#ffffff" id="svg_7"/>
  </g>
 </g>
</svg>