<?xml version="1.0"?>
<svg width="512" height="512" xmlns="http://www.w3.org/2000/svg" xmlns:svg="http://www.w3.org/2000/svg" preserveAspectRatio="xMidYMid meet" version="1.0">
 <g class="layer">
  <title>Layer 1</title>
  <g fill="#000000" id="svg_1" transform="matrix(0.1 0 0 -0.1 0 0)">
   <path d="m1963,-411c-118,-23 -193,-118 -193,-245l0,-43l-218,-3l-219,-3l-41,-28c-49,-32 -82,-91 -82,-147l0,-40l-266,0c-170,0 -282,-4 -312,-12c-64,-16 -134,-86 -150,-150c-16,-64 -17,-3408 -1,-3472c14,-55 59,-110 112,-139l42,-22l1930,0l1930,0l42,22c52,28 88,75 103,133c8,31 10,175 8,460c-3,454 -2,442 -65,502c-54,51 -86,58 -283,58l-180,0l0,447c0,435 -1,448 -21,491c-13,26 -38,54 -62,70c-40,26 -44,27 -236,32l-196,5l-5,717l-5,716l-30,44c-17,23 -51,54 -75,68c-45,25 -47,25 -332,28l-288,3l0,32c0,40 -30,105 -61,134c-53,48 -83,53 -327,53l-229,0l-5,69c-4,46 -13,82 -29,110c-27,48 -96,98 -148,107c-20,3 -43,7 -51,9c-8,1 -34,-1 -57,-6zm124,-153c26,-23 28,-29 33,-131c4,-90 8,-109 24,-121c16,-11 72,-14 288,-14c332,0 308,12 308,-160c0,-107 -2,-122 -20,-140c-20,-20 -33,-20 -678,-20c-579,0 -660,2 -680,16c-21,14 -22,22 -22,141c0,104 3,130 17,145c15,16 36,18 257,18c298,0 286,-5 286,115c0,134 26,174 112,175c35,0 54,-6 75,-24zm-877,-541c10,-87 49,-136 129,-163c24,-9 224,-12 705,-12c629,0 674,2 711,19c70,31 115,104 115,184l0,28l274,-3l274,-3l26,-24l26,-24l0,-699l0,-698l-185,0c-201,0 -231,-6 -282,-62c-52,-56 -53,-64 -53,-537l0,-439l-194,-4l-194,-3l-44,-30c-25,-18 -52,-49 -66,-75l-22,-45l2,-443l3,-442l-888,0c-560,0 -895,4 -907,10c-10,5 -23,24 -29,41c-16,46 -16,3373 0,3419c20,56 42,60 334,57l260,-2l5,-50zm2100,-1637c0,-100 2,-115 25,-153c36,-63 71,-75 208,-75c102,0 118,2 147,23c59,39 73,76 78,204l5,113l90,0c70,0 95,-4 109,-17c17,-15 18,-42 18,-455l0,-438l-455,0l-455,0l0,435c0,519 -13,475 135,475l95,0l0,-112zm318,10l-3,-103l-90,0l-90,0l-3,103l-3,102l96,0l96,0l-3,-102zm-838,-1057c0,-106 2,-121 23,-151c46,-68 65,-75 202,-75c137,0 156,7 203,75c20,30 22,45 22,151l0,119l115,0l115,0l0,-429c0,-418 0,-429 -21,-455l-20,-26l-416,0c-373,0 -418,2 -435,17c-17,15 -18,42 -18,434l0,418l26,20c23,18 41,21 115,21l89,0l0,-119zm320,15c0,-120 3,-116 -95,-116c-98,0 -95,-4 -95,116l0,104l95,0l95,0l0,-104zm720,-4c0,-135 20,-184 90,-219c62,-32 213,-33 276,-2c72,34 88,73 93,212l3,117l88,0c72,0 92,-4 111,-19l24,-19l3,-409c3,-403 2,-410 -18,-436l-21,-27l-446,0c-402,0 -445,2 -439,16c3,9 6,213 6,455l0,439l115,0l115,0l0,-108zm330,10c0,-63 -4,-102 -12,-110c-16,-16 -160,-16 -176,0c-8,8 -12,47 -12,110l0,98l100,0l100,0l0,-98z" fill="#ffffff" id="svg_2"/>
   <path d="m946,-1404c-50,-19 -94,-62 -107,-106c-6,-22 -9,-149 -7,-341l3,-306l27,-35c51,-66 60,-68 403,-68c332,0 334,0 387,57c46,49 50,84 46,399l-3,291l-27,40c-49,75 -64,78 -393,80c-229,2 -298,0 -329,-11zm604,-136c19,-19 20,-33 20,-286c0,-164 -4,-273 -10,-285c-10,-18 -24,-19 -293,-19c-207,0 -286,3 -295,12c-9,9 -12,88 -12,295l0,284l23,9c12,5 140,9 285,9c249,1 263,0 282,-19z" fill="#ffffff" id="svg_3"/>
   <path d="m1353,-1652c-11,-13 -48,-67 -83,-121l-63,-98l-42,45c-44,49 -67,55 -103,30c-40,-28 -29,-67 44,-165c59,-79 69,-89 98,-89c17,0 36,4 42,8c15,10 210,312 218,338c4,14 -1,30 -15,47c-26,34 -68,36 -96,5z" fill="#ffffff" id="svg_4"/>
   <path d="m1885,-1794c-27,-19 -24,-74 4,-98c22,-17 55,-18 608,-18l584,0l24,25c29,28 31,51 9,83l-15,22l-598,0c-487,0 -601,-2 -616,-14z" fill="#ffffff" id="svg_5"/>
   <path d="m935,-2429c-46,-21 -79,-54 -94,-94c-7,-18 -11,-140 -11,-330c0,-295 1,-303 23,-342c13,-22 40,-49 62,-62c39,-22 47,-23 343,-23c332,0 347,2 395,59c45,54 49,84 45,396c-3,282 -4,291 -26,327c-13,20 -40,47 -60,60c-36,22 -44,23 -337,26c-276,2 -303,1 -340,-17zm617,-128c17,-15 18,-37 18,-285c0,-167 -4,-277 -10,-289c-10,-18 -24,-19 -293,-19c-207,0 -286,3 -295,12c-9,9 -12,88 -12,295c0,258 1,283 18,292c10,6 122,11 286,11c237,0 272,-2 288,-17z" fill="#ffffff" id="svg_6"/>
   <path d="m1357,-2664c-7,-8 -44,-62 -82,-121l-69,-108l-39,47c-42,49 -67,57 -105,30c-38,-26 -29,-68 34,-153c31,-42 64,-82 72,-88c25,-20 66,-15 89,10c24,27 197,294 206,320c7,19 -8,56 -27,69c-18,13 -64,9 -79,-6z" fill="#ffffff" id="svg_7"/>
   <path d="m1881,-2826c-12,-15 -21,-32 -21,-39c0,-7 9,-24 21,-39l20,-26l369,0c340,0 369,1 390,18c27,22 29,65 5,92c-17,19 -33,20 -391,20l-373,0l-20,-26z" fill="#ffffff" id="svg_8"/>
   <path d="m946,-3440c-34,-11 -82,-54 -102,-92c-11,-22 -14,-89 -14,-334c0,-299 1,-307 22,-346c13,-22 41,-51 64,-64c41,-24 42,-24 342,-24c189,0 311,4 329,11c40,15 73,48 94,94c17,36 19,69 18,325c0,350 -7,376 -104,421c-36,17 -69,18 -330,18c-159,0 -303,-5 -319,-9zm606,-137c17,-15 18,-37 18,-289c0,-234 -2,-275 -16,-288c-13,-14 -54,-16 -293,-16c-202,0 -280,3 -289,12c-9,9 -12,88 -12,295c0,258 1,283 18,292c10,6 122,11 286,11c237,0 272,-2 288,-17z" fill="#ffffff" id="svg_9"/>
   <path d="m1380,-3671c-17,-6 -49,-47 -99,-125l-74,-116l-39,46c-44,51 -82,60 -111,28c-31,-34 -21,-68 45,-155c34,-45 67,-85 72,-89c20,-14 63,-8 79,10c24,26 204,308 211,329c7,24 -14,64 -39,73c-11,4 -31,3 -45,-1z" fill="#ffffff" id="svg_10"/>
   <path d="m1885,-3845c-14,-13 -25,-29 -25,-35c0,-16 21,-53 34,-62c6,-4 83,-8 172,-8c179,0 194,5 194,68c0,55 -24,62 -198,62c-149,0 -154,-1 -177,-25z" fill="#ffffff" id="svg_11"/>
  </g>
 </g>
</svg>