<?xml version="1.0"?>
<svg width="512" height="512" xmlns="http://www.w3.org/2000/svg" xmlns:svg="http://www.w3.org/2000/svg" preserveAspectRatio="xMidYMid meet" version="1.0">
 <g class="layer">
  <title>Layer 1</title>
  <g fill="#000000" id="svg_1" transform="matrix(0.1 0 0 -0.1 0 0)">
   <path d="m3602,-113c-20,-22 -22,-33 -22,-163c0,-134 1,-142 23,-162c30,-29 62,-28 92,3c24,23 25,29 25,160c0,131 -1,137 -25,160c-30,31 -65,32 -93,2z" fill="#ffffff" id="svg_2"/>
   <path d="m2860,-303c-13,-7 -29,-24 -34,-39c-8,-23 -1,-42 53,-140c70,-125 90,-148 131,-148c36,0 74,44 66,76c-10,38 -127,233 -149,249c-26,18 -35,18 -67,2z" fill="#ffffff" id="svg_3"/>
   <path d="m4366,-312c-32,-30 -146,-226 -146,-254c0,-47 74,-81 112,-51c17,13 122,190 138,232c12,32 -4,69 -37,84c-33,15 -38,14 -67,-11z" fill="#ffffff" id="svg_4"/>
   <path d="m3528,-750c-371,-68 -628,-348 -663,-725c-14,-145 24,-301 107,-437c107,-175 128,-216 158,-306c41,-121 61,-253 40,-260c-8,-3 -31,-21 -51,-41c-27,-26 -39,-50 -48,-89c-14,-66 -14,-272 0,-332c20,-88 96,-149 186,-150l41,0l7,-52c9,-63 23,-94 62,-130c46,-44 72,-48 284,-48c177,0 204,2 237,19c71,36 102,87 102,167l0,44l47,0c68,0 129,33 164,88l29,46l0,180c0,169 -2,184 -23,221c-12,22 -38,50 -57,63c-41,27 -41,42 -9,180c25,111 69,213 136,319c126,201 153,281 153,464c0,188 -49,334 -161,483c-98,128 -273,243 -430,281c-78,19 -247,27 -311,15zm319,-165c158,-50 295,-165 373,-315c51,-99 70,-180 70,-306c0,-128 -21,-200 -91,-315c-129,-210 -185,-343 -209,-504c-7,-44 -14,-86 -16,-92c-2,-10 -37,-13 -129,-13l-125,0l2,381l3,381l140,81c151,89 175,114 154,161c-6,13 -25,30 -40,37c-27,11 -39,6 -180,-75l-151,-86l-130,76c-71,41 -140,79 -154,84c-55,21 -108,-32 -85,-87c9,-21 48,-49 156,-111l145,-84l0,-379l0,-379l-129,0l-128,0l-7,61c-19,164 -72,307 -182,488c-109,181 -127,234 -128,376c0,191 55,326 189,461c65,65 98,90 166,122c160,78 321,90 486,37zm231,-1697c8,-8 12,-59 12,-163c0,-104 -4,-155 -12,-163c-7,-7 -44,-12 -95,-12c-76,0 -86,-2 -108,-25c-22,-21 -25,-33 -25,-103c0,-47 -5,-83 -12,-90c-15,-15 -355,-17 -377,-3c-11,7 -17,37 -20,100c-4,53 -11,95 -19,103c-8,8 -49,15 -105,18c-85,5 -92,7 -104,30c-20,39 -18,269 3,298l15,22l418,0c311,0 420,-3 429,-12z" fill="#ffffff" id="svg_5"/>
   <path d="m2290,-870c-11,-11 -20,-33 -20,-49c0,-36 24,-56 157,-131c102,-58 134,-61 166,-19c36,49 16,75 -114,151c-121,71 -157,80 -189,48z" fill="#ffffff" id="svg_6"/>
   <path d="m4830,-911c-113,-64 -140,-88 -140,-123c0,-29 39,-66 69,-66c27,0 215,104 249,137c43,42 14,113 -45,113c-16,0 -75,-28 -133,-61z" fill="#ffffff" id="svg_7"/>
   <path d="m2535,-1997c-28,-10 -407,-224 -844,-476c-436,-252 -794,-457 -795,-455c-2,2 -13,30 -26,63c-17,41 -41,78 -80,117c-72,71 -134,93 -249,85c-96,-6 -156,-32 -225,-97c-80,-76 -103,-135 -131,-343c-13,-95 -38,-255 -55,-357c-56,-329 -51,-481 25,-708c43,-127 129,-311 189,-400c219,-330 615,-506 1012,-451c104,14 233,53 317,94c110,54 724,417 766,451c60,51 94,125 99,215c6,99 -14,162 -74,228c-44,49 -130,101 -166,101c-17,0 -18,5 -11,37c16,74 7,159 -21,217c-35,72 -112,140 -182,162c-50,16 -53,19 -46,43c4,14 7,60 7,101c-1,61 -6,85 -27,125c-25,48 -98,126 -129,137c-8,3 -12,8 -9,11c3,3 183,108 400,232c516,297 554,320 585,357c114,135 105,318 -22,440c-79,76 -209,106 -308,71zm193,-156c87,-57 101,-185 29,-264c-11,-13 -287,-176 -612,-364c-602,-346 -624,-361 -608,-406c19,-53 67,-67 125,-37c44,23 126,15 173,-17c65,-44 92,-139 61,-212c-7,-18 -34,-51 -60,-74c-40,-36 -47,-48 -44,-75c2,-20 13,-38 30,-51c26,-20 28,-20 75,-2c92,36 182,13 230,-58c52,-77 38,-164 -38,-236c-36,-35 -49,-54 -49,-76c0,-60 51,-80 126,-49c76,32 172,-3 213,-77c38,-66 23,-168 -30,-215c-35,-31 -670,-401 -757,-441c-393,-182 -877,-51 -1122,302c-100,145 -195,379 -226,555c-21,122 -15,235 26,480c17,102 42,261 55,354c28,203 47,242 135,289c48,25 64,28 120,25c45,-2 73,-10 92,-23c36,-26 72,-95 94,-175c10,-36 26,-75 37,-87c23,-26 63,-30 92,-9c32,21 1655,956 1679,967c36,15 112,4 154,-24z" fill="#ffffff" id="svg_8"/>
  </g>
 </g>
</svg>