<?xml version="1.0"?>
<svg width="512" height="512" xmlns="http://www.w3.org/2000/svg" xmlns:svg="http://www.w3.org/2000/svg" preserveAspectRatio="xMidYMid meet" version="1.0">
 <g class="layer">
  <title>Layer 1</title>
  <g fill="#000000" id="svg_1" transform="matrix(0.1 0 0 -0.1 0 0)">
   <path d="m2150,-492c-273,-16 -569,-112 -862,-280c-138,-78 -158,-97 -158,-142c0,-36 36,-76 69,-76c9,0 54,23 101,51c341,205 643,299 960,300c427,0 844,-173 1299,-537c141,-113 437,-395 460,-438c12,-22 10,-35 -29,-133c-24,-59 -46,-111 -49,-115c-4,-4 -67,55 -140,132c-439,463 -894,751 -1313,831c-155,30 -375,23 -526,-15c-381,-96 -797,-368 -1207,-787c-144,-148 -224,-237 -288,-323c-59,-78 -55,-92 67,-238c406,-486 919,-871 1335,-1002c202,-64 427,-79 616,-42c346,67 693,257 1053,575c83,74 91,79 79,49c-7,-18 -49,-123 -93,-232l-79,-200l-59,-43c-199,-147 -476,-286 -693,-347c-392,-112 -765,-74 -1168,118c-426,204 -844,558 -1243,1053c-183,228 -182,243 55,530c125,150 398,431 533,546c113,97 119,105 120,137c0,55 -57,93 -103,69c-82,-43 -419,-369 -603,-584c-229,-266 -284,-357 -284,-464c0,-111 40,-179 251,-431c386,-461 846,-833 1256,-1014c457,-202 866,-226 1315,-76c130,43 318,130 441,203c42,25 77,45 77,43c0,-1 -11,-29 -24,-62c-22,-55 -25,-86 -45,-474c-12,-228 -21,-452 -21,-497l0,-83l-1375,0c-1362,0 -1375,0 -1395,-20c-43,-43 -14,-113 52,-125c18,-3 692,-5 1498,-3c1563,3 1494,1 1549,51c13,12 160,180 326,374l302,351l83,207c45,113 82,218 83,232c0,17 -11,36 -27,50c-64,55 -98,21 -176,-177c-34,-85 -65,-159 -69,-163c-5,-4 -62,14 -128,40l-121,48l250,625c137,344 251,626 253,628c4,5 245,-90 245,-97c0,-4 -54,-141 -120,-306c-66,-165 -120,-314 -120,-331c0,-35 37,-74 71,-74c48,0 64,33 376,815l308,770l0,80c0,72 -3,86 -34,144c-22,39 -52,76 -79,96c-57,44 -434,195 -506,202c-101,10 -213,-41 -275,-127c-24,-34 -60,-113 -112,-249c-9,-23 -16,-17 -157,120c-157,154 -276,258 -410,357c-483,357 -920,508 -1392,480zm395,-572c660,-196 980,-907 680,-1511c-232,-467 -766,-705 -1258,-559c-294,86 -546,301 -677,577c-68,143 -91,241 -97,412c-4,115 -1,170 11,239c84,445 432,782 896,870c14,2 99,3 190,2c145,-3 176,-6 255,-30zm2146,-232c105,-42 204,-88 221,-102c35,-30 58,-78 58,-122c0,-23 -105,-307 -126,-342c-3,-5 -621,236 -633,248c-7,7 110,296 132,328c23,32 88,65 129,66c16,0 114,-34 219,-76zm-3530,-271c-80,-162 -121,-342 -121,-537c0,-192 39,-367 118,-529c30,-60 33,-72 17,-61c-45,32 -271,245 -348,328c-107,117 -227,257 -227,265c0,14 232,271 346,383c98,95 242,227 251,228c1,0 -15,-35 -36,-77zm2397,-128c97,-92 312,-328 312,-342c0,-5 -21,-63 -47,-129l-46,-119l-161,-160c-89,-89 -189,-185 -223,-214l-62,-52l38,83c160,345 158,732 -5,1062c-19,38 -34,72 -34,74c0,6 133,-112 228,-203zm914,-187c169,-68 308,-127 308,-133c0,-5 -27,-78 -61,-161l-60,-152l-287,115c-158,63 -301,121 -319,128l-32,13l62,156c34,86 66,156 72,156c5,0 148,-55 317,-122zm-377,-382c85,-35 110,-49 109,-63c-1,-14 -476,-1212 -490,-1235c-4,-7 -223,78 -238,92c-11,11 482,1250 498,1250c7,0 61,-20 121,-44zm-91,-1587c7,-6 -153,-204 -243,-302c-16,-16 -25,-14 -176,47l-160,64l3,189c1,103 4,198 7,210c5,20 18,16 282,-89c153,-61 282,-115 287,-119zm-464,-397c50,-20 91,-41 91,-45c0,-5 -34,-48 -76,-98c-62,-72 -82,-89 -104,-89c-15,0 -32,5 -39,12c-13,13 -17,181 -6,237c8,36 0,37 134,-17z" fill="#ffffff" id="svg_2"/>
   <path d="m2190,-1580c-203,-28 -375,-178 -434,-379c-20,-67 -21,-207 -2,-276c24,-91 68,-167 137,-236c201,-202 515,-211 722,-20c110,102 164,213 174,355c22,331 -269,602 -597,556zm135,-151c311,-57 422,-436 190,-648c-76,-69 -146,-95 -255,-95c-75,-1 -93,3 -152,31c-82,39 -151,105 -186,181c-24,50 -27,69 -27,162c0,127 17,172 96,255c57,61 132,102 206,115c68,11 64,11 128,-1z" fill="#ffffff" id="svg_3"/>
  </g>
 </g>
</svg>