<?xml version="1.0" encoding="UTF-8"?> <svg xmlns="http://www.w3.org/2000/svg" id="a5a56555-d0a0-44aa-8fd9-d2d597ea9a16" data-name="Calque 1" viewBox="0 0 281.44 58"><defs><style>.a53dcd5d-77e0-43bb-978b-cc79e6563bfa{fill:#373cf5;}.b91b00a6-3cab-4048-b95b-568fac2f6283{fill:#fff;}</style></defs><g id="e0b021a3-02eb-4669-9a13-045256bf9fcb" data-name="Calque 4"><path class="a53dcd5d-77e0-43bb-978b-cc79e6563bfa" d="M252.57,58H28.92A28.9,28.9,0,0,1,.11,29.14v-.37A28.91,28.91,0,0,1,28.92,0H252.57a28.91,28.91,0,0,1,28.81,28.82v.37A28.9,28.9,0,0,1,252.57,58"></path><path class="b91b00a6-3cab-4048-b95b-568fac2f6283" d="M23.31,29a17.41,17.41,0,0,0,17.4,17.4,17.19,17.19,0,0,0,10.7-3.69l-3.67-4.1a11.9,11.9,0,1,1-2.27-20.49L47.66,13A17.38,17.38,0,0,0,23.31,29"></path><path class="b91b00a6-3cab-4048-b95b-568fac2f6283" d="M31.43,29a9.29,9.29,0,0,0,9.28,9.28,9.06,9.06,0,0,0,5.2-1.64l-3.74-4.18a3.68,3.68,0,0,1-1.46.31A3.77,3.77,0,0,1,37,29a3.82,3.82,0,0,1,3.77-3.8,3.71,3.71,0,0,1,1.52.33l2.18-5a9.23,9.23,0,0,0-13,8.45"></path><path class="b91b00a6-3cab-4048-b95b-568fac2f6283" d="M47.62,25.35a8.17,8.17,0,0,1,.89,3.6,8.4,8.4,0,0,1-1.71,4.88l3.73,4.11A13.27,13.27,0,0,0,52.62,23Z"></path><path class="b91b00a6-3cab-4048-b95b-568fac2f6283" d="M46.08,23.3l9.44-4.43a17.59,17.59,0,0,0-5.25-5.11L46,23.26Z"></path></g><g id="fe433ddc-b9ce-4c0f-99b6-e82b87305ef6" data-name="Calque 3"><path class="b91b00a6-3cab-4048-b95b-568fac2f6283" d="M75.41,22.27a6.6,6.6,0,0,1,1.85,1.11l-1.52,1.81a5.08,5.08,0,0,0-1.18-.7,3.47,3.47,0,0,0-1.25-.23,2.46,2.46,0,0,0-2.15,1.15,6.34,6.34,0,0,0-.79,3.53,6.21,6.21,0,0,0,.79,3.49,2.52,2.52,0,0,0,2.19,1.14,3,3,0,0,0,1.34-.29,7.5,7.5,0,0,0,1.3-.81l1.42,1.83a5.81,5.81,0,0,1-1.84,1.25,5.66,5.66,0,0,1-2.38.49,6.3,6.3,0,0,1-3.25-.81,5.56,5.56,0,0,1-2.15-2.43A8.86,8.86,0,0,1,67,28.94a8.41,8.41,0,0,1,.79-3.79A5.57,5.57,0,0,1,70,22.73a6,6,0,0,1,3.16-.83A6.82,6.82,0,0,1,75.41,22.27Z"></path><path class="b91b00a6-3cab-4048-b95b-568fac2f6283" d="M86,22.27a6.33,6.33,0,0,1,1.85,1.11l-1.51,1.81a5.13,5.13,0,0,0-1.19-.7,3.41,3.41,0,0,0-1.24-.23,2.46,2.46,0,0,0-2.15,1.15A6.34,6.34,0,0,0,81,28.94a6.21,6.21,0,0,0,.79,3.49,2.52,2.52,0,0,0,2.19,1.14,3,3,0,0,0,1.34-.29,7.5,7.5,0,0,0,1.3-.81L88,34.3a6,6,0,0,1-1.83,1.25,5.68,5.68,0,0,1-2.39.49,6.28,6.28,0,0,1-3.24-.81,5.5,5.5,0,0,1-2.15-2.43,8.86,8.86,0,0,1-.76-3.86,8.54,8.54,0,0,1,.78-3.79,5.59,5.59,0,0,1,2.18-2.42,6,6,0,0,1,3.16-.83A6.69,6.69,0,0,1,86,22.27Z"></path><path class="b91b00a6-3cab-4048-b95b-568fac2f6283" d="M92.42,22.23V35.71H89.23V22.23Z"></path><path class="b91b00a6-3cab-4048-b95b-568fac2f6283" d="M106.37,35.71V29.94h-4v5.77H99.14V22.23h3.19v5.21h4V22.23h3.19V35.71Z"></path><path class="b91b00a6-3cab-4048-b95b-568fac2f6283" d="M119,35.71l-.69-2.9h-3.93l-.68,2.9h-3.3l4.06-13.48h3.87l4.06,13.48ZM114.9,30.5h2.83l-1.42-5.94Z"></path><path class="b91b00a6-3cab-4048-b95b-568fac2f6283" d="M133.29,31.24a5,5,0,0,1-.59,2.46,4.15,4.15,0,0,1-1.78,1.71A6.25,6.25,0,0,1,128,36a5.39,5.39,0,0,1-3.9-1.3,4.62,4.62,0,0,1-1.34-3.49v-9H126v8.86a3.13,3.13,0,0,0,.49,1.94,1.86,1.86,0,0,0,1.56.63,1.9,1.9,0,0,0,1.59-.63,3.13,3.13,0,0,0,.49-1.94V22.23h3.19v9Z"></path><path class="b91b00a6-3cab-4048-b95b-568fac2f6283" d="M144.65,22.23l-.31,2.45H141v11h-3.2v-11h-3.47V22.23Z"></path><path class="b91b00a6-3cab-4048-b95b-568fac2f6283" d="M152.31,22.34a5.82,5.82,0,0,1,2,1.3l-1.47,1.72a4.63,4.63,0,0,0-3-1.12,2.2,2.2,0,0,0-1.32.34,1.11,1.11,0,0,0-.5,1,1.14,1.14,0,0,0,.22.72,2,2,0,0,0,.76.54,15.78,15.78,0,0,0,1.63.6,7.43,7.43,0,0,1,3,1.63,3.66,3.66,0,0,1,1,2.73,3.94,3.94,0,0,1-.64,2.23,4.23,4.23,0,0,1-1.84,1.49,7,7,0,0,1-2.86.53,7.61,7.61,0,0,1-2.92-.52,7,7,0,0,1-2.19-1.4l1.61-1.77a6,6,0,0,0,1.61,1,4.61,4.61,0,0,0,1.8.33,2.46,2.46,0,0,0,1.57-.44,1.48,1.48,0,0,0,.57-1.22,1.56,1.56,0,0,0-.22-.85,1.84,1.84,0,0,0-.73-.61A9.45,9.45,0,0,0,149,30a7.48,7.48,0,0,1-3.18-1.67,3.53,3.53,0,0,1-.94-2.51,3.41,3.41,0,0,1,.63-2,3.91,3.91,0,0,1,1.72-1.36,6.28,6.28,0,0,1,2.51-.48A7.49,7.49,0,0,1,152.31,22.34Z"></path><path class="b91b00a6-3cab-4048-b95b-568fac2f6283" d="M155.86,29.94V27.56h6.2v2.38Z"></path><path class="b91b00a6-3cab-4048-b95b-568fac2f6283" d="M172.82,23.67c1.28.95,1.91,2.7,1.91,5.23s-.62,4.27-1.86,5.28A7.45,7.45,0,0,1,168,35.71h-4V22.23h3.75A8.28,8.28,0,0,1,172.82,23.67Zm-5.65.88v8.84h1.06a2.92,2.92,0,0,0,2.39-1,5.57,5.57,0,0,0,.82-3.51,7.07,7.07,0,0,0-.41-2.68,2.58,2.58,0,0,0-1.11-1.31,3.85,3.85,0,0,0-1.72-.35h-1Z"></path><path class="b91b00a6-3cab-4048-b95b-568fac2f6283" d="M184.69,22.23l-.32,2.27h-4.75v3.23h4.14V30h-4.14v3.43h5.07v2.32h-8.25V22.23Z"></path><path class="b91b00a6-3cab-4048-b95b-568fac2f6283" d="M185.68,29.94V27.56h6.2v2.38Z"></path><path class="b91b00a6-3cab-4048-b95b-568fac2f6283" d="M193.8,35.71V22.23h8l-.33,2.27H197v3.59h3.93v2.27H197v5.35Z"></path><path class="b91b00a6-3cab-4048-b95b-568fac2f6283" d="M207.5,30.55h-1.25v5.16h-3.19V22.23h4.41a7,7,0,0,1,4.15,1A3.56,3.56,0,0,1,213,26.34a3.61,3.61,0,0,1-.62,2.16,4.78,4.78,0,0,1-2,1.47l3.42,5.74h-3.6Zm-1.24-2.19h1.34a2.27,2.27,0,0,0,1.6-.49,2,2,0,0,0,.54-1.53,1.72,1.72,0,0,0-.58-1.43,2.9,2.9,0,0,0-1.76-.45h-1.14v3.9Z"></path><path class="b91b00a6-3cab-4048-b95b-568fac2f6283" d="M222,35.71l-.7-2.9h-3.92l-.69,2.9h-3.3l4.06-13.48h3.86l4.07,13.48Zm-4.08-5.21h2.83l-1.42-5.94Z"></path><path class="b91b00a6-3cab-4048-b95b-568fac2f6283" d="M236.52,35.71h-4.06l-3.89-10.44c.13,1,.22,1.93.29,2.71s.11,1.72.11,2.8v4.93h-2.84V22.23h4l4,10.46a32.4,32.4,0,0,1-.43-5V22.23h2.86V35.71Z"></path><path class="b91b00a6-3cab-4048-b95b-568fac2f6283" d="M246.57,22.27a6.33,6.33,0,0,1,1.85,1.11l-1.51,1.81a5.13,5.13,0,0,0-1.19-.7,3.47,3.47,0,0,0-1.25-.23,2.44,2.44,0,0,0-2.14,1.15,6.25,6.25,0,0,0-.79,3.53,6.13,6.13,0,0,0,.79,3.49,2.5,2.5,0,0,0,2.19,1.14,3,3,0,0,0,1.34-.29,7.85,7.85,0,0,0,1.29-.81l1.43,1.83a5.92,5.92,0,0,1-1.84,1.25,5.71,5.71,0,0,1-2.39.49,6.26,6.26,0,0,1-3.24-.81A5.5,5.5,0,0,1,239,32.8a8.85,8.85,0,0,1-.77-3.86,8.54,8.54,0,0,1,.79-3.79,5.59,5.59,0,0,1,2.18-2.42,6,6,0,0,1,3.16-.83A6.71,6.71,0,0,1,246.57,22.27Z"></path><path class="b91b00a6-3cab-4048-b95b-568fac2f6283" d="M258.07,22.23l-.33,2.27H253v3.23h4.14V30H253v3.43h5.07v2.32h-8.26V22.23Z"></path></g></svg> 